<svg width="147" height="248" viewBox="0 0 147 248" fill="none" xmlns="http://www.w3.org/2000/svg">
<path fill-rule="evenodd" clip-rule="evenodd" d="M-85.2017 168.658C-98.0029 148.766 -106.578 124.968 -103.328 101.533C-100.069 78.037 -85.0505 57.7159 -67.5862 41.65C-51.2716 26.6418 -29.6015 20.9362 -8.46095 14.2626C13.1546 7.43908 35.1506 -3.42775 57.0774 2.29654C79.2107 8.07472 94.3182 27.4389 109.04 44.9377C123.595 62.2384 136.272 80.8742 141.657 102.832C147.43 126.374 149.825 151.61 140.708 174.077C131.405 197.002 112.281 214.436 91.1449 227.306C70.3205 239.987 46.1528 249.999 22.0535 246.329C-0.967958 242.823 -15.8698 221.792 -34.7253 208.138C-52.384 195.35 -73.4046 186.99 -85.2017 168.658Z" fill="url(#paint0_linear_2422_7585)"/>
<defs>
<linearGradient id="paint0_linear_2422_7585" x1="-83.346" y1="176.311" x2="132.413" y2="78.2456" gradientUnits="userSpaceOnUse">
<stop stop-color="#0DB176"/>
<stop offset="1" stop-color="#0ECD88"/>
</linearGradient>
</defs>
</svg>
